<?xml version="1.0" encoding="UTF-8"?>
<svg width="1179px" height="351px" viewBox="0 0 1179 351" version="1.1" xmlns="http://www.w3.org/2000/svg" xmlns:xlink="http://www.w3.org/1999/xlink">
    <title>Logo - White Gold Accent@1x</title>
    <g id="Logo---White-Gold-Accent" stroke="none" stroke-width="1" fill="none" fill-rule="evenodd">
        <path d="M952.898975,266 C957.361201,266 961.410672,267.026207 965.047387,269.078621 C968.684102,271.131034 971.551082,273.977931 973.648329,277.61931 C975.745575,281.26069 976.794199,285.376552 976.794199,289.966897 C976.794199,294.557241 975.73442,298.684138 973.614862,302.347586 C971.495304,306.011034 968.617168,308.868966 964.980453,310.921379 C961.343739,312.973793 957.316579,314 952.898975,314 C948.48137,314 944.454211,312.973793 940.817496,310.921379 C937.180781,308.868966 934.302645,306.011034 932.183087,302.347586 C930.06353,298.684138 929.003751,294.557241 929.003751,289.966897 C929.003751,285.376552 930.06353,281.26069 932.183087,277.61931 C934.302645,273.977931 937.180781,271.131034 940.817496,269.078621 C944.454211,267.026207 948.48137,266 952.898975,266 Z M691.189381,266.728276 L710.332333,295.726897 L710.332333,266.728276 L721.777944,266.728276 L721.777944,313.536552 L710.332333,313.536552 L691.189381,284.802759 L691.189381,313.536552 L679.743769,313.536552 L679.743769,266.728276 L691.189381,266.728276 Z M633.29199,266.728276 L633.84988,266.733076 C637.355628,266.793876 640.337846,267.432276 642.796532,268.648276 C645.384624,269.928276 647.325693,271.682759 648.619738,273.911724 C649.913784,276.14069 650.560807,278.689655 650.560807,281.558621 C650.560807,284.957241 649.612584,287.848276 647.716137,290.231724 C645.819691,292.615172 643.064266,294.248276 639.449862,295.131034 L639.449862,295.131034 L650.694674,313.536552 L638.044261,313.536552 L627.803451,295.85931 L625.193048,295.85931 L625.193048,313.536552 L613.747437,313.536552 L613.747437,266.728276 L633.29199,266.728276 Z M583.828207,266.728276 L583.828207,275.732414 L565.823122,275.732414 L565.823122,285.531034 L581.820205,285.531034 L581.820205,294.071724 L565.823122,294.071724 L565.823122,304.466207 L583.828207,304.466207 L583.828207,313.536552 L554.377511,313.536552 L554.377511,266.728276 L583.828207,266.728276 Z M526.131616,266.728276 L526.131616,275.732414 L513.280403,275.732414 L513.280403,313.536552 L501.767859,313.536552 L501.767859,275.732414 L489.050513,275.732414 L489.050513,266.728276 L526.131616,266.728276 Z M430.216054,266.728276 L449.359006,295.726897 L449.359006,266.728276 L460.804618,266.728276 L460.804618,313.536552 L449.359006,313.536552 L430.216054,284.802759 L430.216054,313.536552 L418.770443,313.536552 L418.770443,266.728276 L430.216054,266.728276 Z M387.445611,266.728276 L387.445611,313.536552 L376,313.536552 L376,266.728276 L387.445611,266.728276 Z M780.210803,267.05931 L797.546553,313.536552 L785.364675,313.536552 L782.419605,304.995862 L764.682254,304.995862 L761.737184,313.536552 L749.689172,313.536552 L767.024923,267.05931 L780.210803,267.05931 Z M859.393015,266.728276 L859.393015,275.732414 L846.541802,275.732414 L846.541802,313.536552 L835.029257,313.536552 L835.029257,275.732414 L822.311911,275.732414 L822.311911,266.728276 L859.393015,266.728276 Z M899.084521,266.728276 L899.084521,313.536552 L887.63891,313.536552 L887.63891,266.728276 L899.084521,266.728276 Z M1018.09211,266.728276 L1037.23506,295.726897 L1037.23506,266.728276 L1048.68067,266.728276 L1048.68067,313.536552 L1037.23506,313.536552 L1018.09211,284.802759 L1018.09211,313.536552 L1006.64649,313.536552 L1006.64649,266.728276 L1018.09211,266.728276 Z M1107.11353,267.05931 L1124.44928,313.536552 L1112.2674,313.536552 L1109.32233,304.995862 L1091.58498,304.995862 L1088.63991,313.536552 L1076.5919,313.536552 L1093.92765,267.05931 L1107.11353,267.05931 Z M1163.73918,266.728276 L1163.73918,304.863448 L1179,304.863448 L1179,313.536552 L1152.29357,313.536552 L1152.29357,266.728276 L1163.73918,266.728276 Z M952.898975,276.526897 C949.150704,276.526897 946.172168,277.729655 943.963366,280.135172 C941.754564,282.54069 940.650163,285.817931 940.650163,289.966897 C940.650163,294.071724 941.754564,297.337931 943.963366,299.765517 C946.172168,302.193103 949.150704,303.406897 952.898975,303.406897 C956.602623,303.406897 959.570004,302.193103 961.801117,299.765517 C964.03223,297.337931 965.147787,294.071724 965.147787,289.966897 C965.147787,285.862069 964.043386,282.595862 961.834584,280.168276 C959.625781,277.74069 956.647245,276.526897 952.898975,276.526897 Z M773.584396,279.175172 L767.627323,296.388966 L779.474535,296.388966 L773.584396,279.175172 Z M1100.48712,279.175172 L1094.53005,296.388966 L1106.37726,296.388966 L1100.48712,279.175172 Z M632.287989,276.262069 L625.193048,276.262069 L625.193048,288.113103 L632.287989,288.113103 C634.563724,288.113103 636.237059,287.616552 637.307994,286.623448 C638.378928,285.630345 638.914395,284.162759 638.914395,282.22069 C638.914395,280.366897 638.367772,278.910345 637.274527,277.851034 C636.181281,276.791724 634.519102,276.262069 632.287989,276.262069 L632.287989,276.262069 Z M1137.43469,133 C1149.15442,133 1158.46565,135.78069 1165.36837,141.342069 C1172.27109,146.903448 1176.16939,154.550345 1177.06327,164.282759 L1177.06327,164.282759 L1149.50204,164.282759 L1149.4329,163.833468 C1148.89387,160.568617 1147.65059,157.962519 1145.70306,156.015172 C1143.66701,153.97931 1140.91088,152.961379 1137.43469,152.961379 C1134.4551,152.961379 1132.0466,153.755862 1130.20918,155.344828 C1128.37177,156.933793 1127.45306,159.267586 1127.45306,162.346207 C1127.45306,164.828966 1128.27245,166.93931 1129.91122,168.677241 C1131.55,170.415172 1133.61088,171.830345 1136.09388,172.922759 C1138.57687,174.015172 1142.15238,175.405517 1146.82041,177.093793 C1153.57415,179.377931 1159.08639,181.637241 1163.35714,183.871724 C1167.62789,186.106207 1171.30272,189.358621 1174.38163,193.628966 C1177.46054,197.89931 1179,203.46069 1179,210.313103 C1179,215.874483 1177.58469,220.988966 1174.75408,225.656552 C1171.92347,230.324138 1167.75204,234.048276 1162.2398,236.828966 C1156.72755,239.609655 1150.0483,241 1142.20204,241 C1130.38299,241 1120.64966,238.12 1113.00204,232.36 C1105.35442,226.6 1101.18299,218.555862 1100.48776,208.227586 L1100.48776,208.227586 L1127.60204,208.227586 L1127.65037,208.665492 C1128.10555,212.430566 1129.50475,215.412874 1131.84796,217.612414 C1134.28129,219.896552 1137.38503,221.038621 1141.15918,221.038621 C1144.43673,221.038621 1147.01905,220.144828 1148.90612,218.357241 C1150.7932,216.569655 1151.73673,214.186207 1151.73673,211.206897 C1151.73673,208.525517 1150.86769,206.291034 1149.12959,204.503448 C1147.3915,202.715862 1145.23129,201.251034 1142.64898,200.108966 C1140.06667,198.966897 1136.49116,197.601379 1131.92245,196.012414 C1125.26803,193.728276 1119.83027,191.518621 1115.60918,189.383448 C1111.3881,187.248276 1107.76293,184.070345 1104.73367,179.849655 C1101.70442,175.628966 1100.1898,170.142069 1100.1898,163.388966 C1100.1898,157.132414 1101.77891,151.72 1104.95714,147.151724 C1108.13537,142.583448 1112.53027,139.082759 1118.14184,136.649655 C1123.7534,134.216552 1130.18435,133 1137.43469,133 Z M743.383673,133 C755.103401,133 764.414626,135.78069 771.317347,141.342069 C778.220068,146.903448 782.118367,154.550345 783.012245,164.282759 L783.012245,164.282759 L755.45102,164.282759 L755.381881,163.833468 C754.842851,160.568617 753.599571,157.962519 751.652041,156.015172 C749.615986,153.97931 746.859864,152.961379 743.383673,152.961379 C740.404082,152.961379 737.995578,153.755862 736.158163,155.344828 C734.320748,156.933793 733.402041,159.267586 733.402041,162.346207 C733.402041,164.828966 734.221429,166.93931 735.860204,168.677241 C737.49898,170.415172 739.559864,171.830345 742.042857,172.922759 C744.52585,174.015172 748.101361,175.405517 752.769388,177.093793 C759.523129,179.377931 765.035374,181.637241 769.306122,183.871724 C773.576871,186.106207 777.251701,189.358621 780.330612,193.628966 C783.409524,197.89931 784.94898,203.46069 784.94898,210.313103 C784.94898,215.874483 783.533673,220.988966 780.703061,225.656552 C777.872449,230.324138 773.70102,234.048276 768.188776,236.828966 C762.676531,239.609655 755.997279,241 748.15102,241 C736.331973,241 726.598639,238.12 718.95102,232.36 C711.303401,226.6 707.131973,218.555862 706.436735,208.227586 L706.436735,208.227586 L733.55102,208.227586 L733.599352,208.665492 C734.054533,212.430566 735.453729,215.412874 737.796939,217.612414 C740.230272,219.896552 743.334014,221.038621 747.108163,221.038621 C750.385714,221.038621 752.968027,220.144828 754.855102,218.357241 C756.742177,216.569655 757.685714,214.186207 757.685714,211.206897 C757.685714,208.525517 756.816667,206.291034 755.078571,204.503448 C753.340476,202.715862 751.180272,201.251034 748.597959,200.108966 C746.015646,198.966897 742.440136,197.601379 737.871429,196.012414 C731.217007,193.728276 725.779252,191.518621 721.558163,189.383448 C717.337075,187.248276 713.711905,184.070345 710.682653,179.849655 C707.653401,175.628966 706.138776,170.142069 706.138776,163.388966 C706.138776,157.132414 707.727891,151.72 710.906122,147.151724 C714.084354,142.583448 718.479252,139.082759 724.090816,136.649655 C729.702381,134.216552 736.133333,133 743.383673,133 Z M1005.73673,134.638621 L1005.73673,239.957241 L980.261224,239.957241 L980.261224,134.638621 L1005.73673,134.638621 Z M1088.86735,134.638621 L1088.86735,154.897931 L1048.79184,154.897931 L1048.79184,176.944828 L1084.39796,176.944828 L1084.39796,196.161379 L1048.79184,196.161379 L1048.79184,219.548966 L1088.86735,219.548966 L1088.86735,239.957241 L1023.31633,239.957241 L1023.31633,134.638621 L1088.86735,134.638621 Z M874.783673,134.638621 L874.783673,154.897931 L846.179592,154.897931 L846.179592,239.957241 L820.555102,239.957241 L820.555102,154.897931 L792.24898,154.897931 L792.24898,134.638621 L874.783673,134.638621 Z M691.687755,134.638621 L691.687755,239.957241 L666.212245,239.957241 L666.212245,134.638621 L691.687755,134.638621 Z M580.54898,134.638621 L623.157143,199.885517 L623.157143,134.638621 L648.632653,134.638621 L648.632653,239.957241 L623.157143,239.957241 L580.54898,175.306207 L580.54898,239.957241 L555.073469,239.957241 L555.073469,134.638621 L580.54898,134.638621 Z M537.493878,134.638621 L537.493878,239.957241 L512.018367,239.957241 L512.018367,134.638621 L537.493878,134.638621 Z M407.136735,135.383448 L435.591837,208.227586 L463.45102,135.383448 L494.438776,135.383448 L494.438776,239.957241 L468.963265,239.957241 L468.963265,174.561379 L446.318367,239.957241 L424.269388,239.957241 L401.47551,174.412414 L401.47551,239.957241 L376,239.957241 L376,135.383448 L407.136735,135.383448 Z M929.012245,134.638621 L929.76713,134.642588 C937.781292,134.727216 944.581365,136.165893 950.167347,138.958621 C955.927891,141.838621 960.248299,145.786207 963.128571,150.801379 C966.008844,155.816552 967.44898,161.551724 967.44898,168.006897 C967.44898,175.653793 965.338435,182.158621 961.117347,187.521379 C956.896259,192.884138 950.763265,196.558621 942.718367,198.544828 L942.718367,198.544828 L967.746939,239.957241 L939.589796,239.957241 L916.795918,200.183448 L910.985714,200.183448 L910.985714,239.957241 L885.510204,239.957241 L885.510204,134.638621 L929.012245,134.638621 Z M926.777551,156.089655 L910.985714,156.089655 L910.985714,182.754483 L926.777551,182.754483 C931.842857,182.754483 935.567347,181.637241 937.95102,179.402759 C940.334694,177.168276 941.526531,173.866207 941.526531,169.496552 C941.526531,165.325517 940.309864,162.048276 937.876531,159.664828 C935.443197,157.281379 931.743537,156.089655 926.777551,156.089655 L926.777551,156.089655 Z M586.80293,-4.97379915e-14 C596.734752,-4.97379915e-14 605.747881,2.30896552 613.842316,6.92689655 C621.936751,11.5448276 628.317947,17.9503448 632.985904,26.1434483 C637.65386,34.3365517 639.987839,43.5972414 639.987839,53.9255172 C639.987839,64.2537931 637.629031,73.5393103 632.911415,81.782069 C628.1938,90.0248276 621.787774,96.4551724 613.693339,101.073103 C605.598904,105.691034 596.635434,108 586.80293,108 C576.970426,108 568.006956,105.691034 559.912521,101.073103 C551.818085,96.4551724 545.41206,90.0248276 540.694444,81.782069 C535.976829,73.5393103 533.618021,64.2537931 533.618021,53.9255172 C533.618021,43.5972414 535.976829,34.3365517 540.694444,26.1434483 C545.41206,17.9503448 551.818085,11.5448276 559.912521,6.92689655 C568.006956,2.30896552 576.970426,-4.97379915e-14 586.80293,-4.97379915e-14 Z M774.514373,1.63862069 L774.514373,87.4427586 L808.481205,87.4427586 L808.481205,106.957241 L749.039248,106.957241 L749.039248,1.63862069 L774.514373,1.63862069 Z M697.791045,1.63862069 L698.545918,1.64258763 C706.559959,1.72721573 713.359929,3.16589342 718.945826,5.95862069 C724.706283,8.83862069 729.026626,12.7862069 731.906855,17.8013793 C734.787083,22.8165517 736.227197,28.5517241 736.227197,35.0068966 C736.227197,42.6537931 734.116685,49.1586207 729.895661,54.5213793 C725.777588,59.7533389 719.839764,63.3783733 712.08219,65.3964824 L711.49696,65.5448276 L736.525152,106.957241 L708.368436,106.957241 L685.574903,67.1834483 L679.764787,67.1834483 L679.764787,106.957241 L654.289663,106.957241 L654.289663,1.63862069 L697.791045,1.63862069 Z M403.709784,1.63862069 L417.266722,77.9089655 L435.739912,1.63862069 L463.598673,1.63862069 L482.071863,77.9089655 L495.777778,1.63862069 L523.338585,1.63862069 L498.161415,106.957241 L466.57822,106.957241 L449.743781,36.4965517 L432.760365,106.957241 L401.17717,106.957241 L376,1.63862069 L403.709784,1.63862069 Z M860.027363,1.63862069 L860.814792,1.64216557 C871.803824,1.7414222 881.324193,3.92506816 889.375898,8.19310345 C897.619311,12.5627586 903.950848,18.72 908.370509,26.6648276 C912.79017,34.6096552 915,43.7462069 915,54.0744828 C915,64.4027586 912.79017,73.5641379 908.370509,81.5586207 C903.950848,89.5531034 897.594481,95.7848276 889.30141,100.253793 C881.2012,104.618829 871.703391,106.852103 860.807983,106.953616 L860.027363,106.957241 L820.250415,106.957241 L820.250415,1.63862069 L860.027363,1.63862069 Z M857.792703,23.9834483 L845.725539,23.9834483 L845.725539,84.1655172 L857.792703,84.1655172 C867.724526,84.1655172 875.446517,81.5337931 880.958679,76.2703448 C886.47084,71.0068966 889.226921,63.6082759 889.226921,54.0744828 C889.226921,44.5406897 886.47084,37.142069 880.958679,31.8786207 C875.446517,26.6151724 867.724526,23.9834483 857.792703,23.9834483 Z M586.80293,23.6855172 C578.460199,23.6855172 571.830708,26.3917241 566.914456,31.8041379 C561.998203,37.2165517 559.540077,44.5903448 559.540077,53.9255172 C559.540077,63.1613793 561.998203,70.5103448 566.914456,75.9724138 C571.830708,81.4344828 578.460199,84.1655172 586.80293,84.1655172 C595.046342,84.1655172 601.651004,81.4344828 606.616915,75.9724138 C611.582827,70.5103448 614.065782,63.1613793 614.065782,53.9255172 C614.065782,44.6896552 611.607656,37.3406897 606.691404,31.8786207 C601.775152,26.4165517 595.145661,23.6855172 586.80293,23.6855172 Z M695.556385,23.0896552 L679.764787,23.0896552 L679.764787,49.7544828 L695.556385,49.7544828 C700.621614,49.7544828 704.346048,48.6372414 706.729685,46.4027586 C709.113322,44.1682759 710.305141,40.8662069 710.305141,36.4965517 C710.305141,32.3255172 709.088493,29.0482759 706.655196,26.6648276 C704.2219,24.2813793 700.522296,23.0896552 695.556385,23.0896552 Z" id="World-Ministries-International" fill="#FFFFFF" fill-rule="nonzero"></path>
        <path d="M173.332662,0 C220.300926,0 264.72163,18.2337256 298.404393,51.3415041 C332.255035,84.6129645 350.897965,128.687419 350.897965,175.450032 C350.897965,272.192232 272.192232,350.897965 175.447933,350.897965 C78.7057326,350.897965 0,272.192232 0,175.450032 C0,128.477571 17.858097,84.4345933 50.2817698,51.4359359 C82.8733214,18.2673013 126.572148,0 173.332662,0 Z M255.083294,263.437358 C250.308588,272.742429 245.087691,281.175038 239.799692,288.702694 L239.094261,289.701015 C236.859348,292.845368 234.615476,295.828135 232.391179,298.646872 L231.689453,299.531544 L231.689453,299.531544 L230.989229,300.405294 C230.406389,301.128863 229.825322,301.841037 229.246545,302.541771 L228.553147,303.377158 C228.207031,303.792103 227.861815,304.202924 227.517611,304.60961 C227.256156,304.918527 226.99473,305.225809 226.733362,305.531454 L225.94946,306.443479 C225.165791,307.350596 224.382902,308.242986 223.601567,309.12065 L222.820778,309.993404 C222.560707,310.282686 222.300838,310.570331 222.041198,310.85634 L221.262998,311.709459 L221.262998,311.709459 L220.486349,312.55276 C220.357047,312.692492 220.227816,312.831814 220.098661,312.970728 L219.324662,313.799302 C219.066983,314.073857 218.809635,314.346776 218.552645,314.618058 L217.782782,315.426996 L217.782782,315.426996 L217.015244,316.226117 L217.015244,316.226117 L216.250203,317.015419 L216.250203,317.015419 L215.487832,317.794904 L215.487832,317.794904 L214.728302,318.56457 L214.728302,318.56457 L213.971785,319.324419 C213.594308,319.701889 213.218026,320.075677 212.843034,320.445784 L212.094802,321.181088 L212.094802,321.181088 L211.350184,321.906574 L211.350184,321.906574 L210.609353,322.622242 L210.609353,322.622242 L209.872481,323.328093 L209.872481,323.328093 L209.139739,324.024126 L209.139739,324.024126 L208.411299,324.71034 L208.411299,324.71034 L207.687334,325.386737 C207.567055,325.498652 207.44697,325.610157 207.327083,325.721254 L206.610151,326.382924 L206.610151,326.382924 L205.898124,327.034776 L205.898124,327.034776 L205.191172,327.67681 L205.191172,327.67681 L204.489468,328.309027 L204.489468,328.309027 L203.793184,328.931426 L203.793184,328.931426 L203.102492,329.544006 L203.102492,329.544006 L202.417563,330.146769 L202.417563,330.146769 L201.73857,330.739714 L201.73857,330.739714 L201.065685,331.322841 L201.065685,331.322841 L200.399078,331.89615 L200.399078,331.89615 L199.738923,332.459642 L199.738923,332.459642 L199.085391,333.013315 L199.085391,333.013315 L198.438654,333.557171 L198.438654,333.557171 L197.798884,334.091209 L197.798884,334.091209 C237.399371,328.53862 272.399982,308.462426 297.227144,279.427805 L296.463499,279.046466 L296.463499,279.046466 L295.936523,278.786068 L295.936523,278.786068 L295.119327,278.386561 L295.119327,278.386561 L294.556756,278.114492 L294.556756,278.114492 L293.686327,277.698141 L293.686327,277.698141 L293.088374,277.415282 L293.088374,277.415282 L292.165031,276.983409 C292.06068,276.934932 291.955744,276.886295 291.850223,276.837499 L290.884779,276.394161 L290.884779,276.394161 L289.887894,275.94278 L289.887894,275.94278 L289.205892,275.637627 L289.205892,275.637627 L288.156859,275.173899 L288.156859,275.173899 L287.440199,274.860955 L287.440199,274.860955 L286.339338,274.386203 L286.339338,274.386203 L285.588232,274.066351 L285.588232,274.066351 L284.823407,273.743983 L284.823407,273.743983 L284.044898,273.419239 L284.044898,273.419239 L283.252738,273.092261 L283.252738,273.092261 L282.446962,272.76319 L282.446962,272.76319 L281.627603,272.432168 L281.627603,272.432168 L280.794695,272.099334 L280.794695,272.099334 L279.948273,271.764831 C279.806079,271.70895 279.663322,271.653004 279.520005,271.596998 L278.653375,271.260255 C278.507817,271.204018 278.361699,271.147726 278.215022,271.091381 L277.328261,270.752716 L277.328261,270.752716 L276.428121,270.412946 L276.428121,270.412946 L275.514638,270.072212 C275.36128,270.01535 275.207368,269.958455 275.052903,269.901527 L274.119466,269.559612 L274.119466,269.559612 L273.172771,269.217085 C273.013885,269.159954 272.854449,269.102804 272.694462,269.045637 L271.727942,268.702458 L271.727942,268.702458 L270.748247,268.35902 L270.748247,268.35902 L269.755413,268.015465 L269.755413,268.015465 L268.749473,267.671934 L268.749473,267.671934 L267.730461,267.328569 C267.559538,267.271362 267.388072,267.214169 267.216064,267.156991 L266.177508,266.814138 L266.177508,266.814138 L265.125965,266.471801 L265.125965,266.471801 L264.06147,266.130124 C263.704483,266.016357 263.345343,265.902723 262.984056,265.789247 L261.893757,265.44931 L261.893757,265.44931 L260.790608,265.110456 L260.790608,265.110456 L259.674642,264.772825 L259.674642,264.772825 L258.545894,264.436559 L258.545894,264.436559 L257.404397,264.101798 C256.639157,263.879158 255.865441,263.657615 255.083294,263.437358 Z M167.404445,252.233553 C160.781336,252.312121 154.434424,252.585033 148.362639,253.02057 L146.966342,253.123951 C145.111122,253.265603 143.281942,253.422421 141.47877,253.59348 L140.131268,253.72443 C139.012412,253.835756 137.903713,253.952555 136.805163,254.074601 L135.491774,254.223561 L135.491774,254.223561 L134.188125,254.377472 C133.971661,254.403531 133.755604,254.429793 133.539952,254.456257 L132.250907,254.617431 C129.040463,255.02632 125.921264,255.479593 122.893103,255.971157 L121.686694,256.169811 L121.686694,256.169811 L120.489993,256.372463 C119.496786,256.542981 118.513689,256.717573 117.540693,256.896014 L116.377947,257.111975 L116.377947,257.111975 L115.224895,257.331545 C115.033528,257.368436 114.842564,257.405474 114.652004,257.442656 L113.513489,257.667476 C113.324544,257.705231 113.136003,257.743127 112.947865,257.781163 L111.82388,258.011037 C111.637356,258.049624 111.451236,258.088346 111.265519,258.127203 L110.156058,258.361937 L110.156058,258.361937 L109.056276,258.599803 C108.873785,258.639703 108.691697,258.67973 108.510013,258.719883 L107.424743,258.962283 C107.244671,259.002929 107.065002,259.043696 106.885735,259.084582 L105.814971,259.331323 L105.814971,259.331323 L104.753875,259.580849 C104.225743,259.706294 103.701235,259.832751 103.180349,259.960171 C123.604241,298.485311 153.324525,323.162529 166.995123,333.14682 L167.404445,333.444876 L167.404445,252.233553 Z M179.25878,252.286015 L179.25878,333.430186 L180.083426,332.826329 C193.869158,322.671472 222.998652,298.221699 243.210073,260.37567 L242.107706,260.11787 C241.738789,260.032346 241.368411,259.947236 240.996576,259.862555 L239.876702,259.609812 L239.876702,259.609812 L238.748105,259.359729 C238.370455,259.276822 237.991353,259.194372 237.610805,259.112395 L236.464821,258.867898 L236.464821,258.867898 L235.310175,258.626324 L235.310175,258.626324 L234.146885,258.387763 L234.146885,258.387763 L232.974973,258.152302 L232.974973,258.152302 L231.794458,257.92003 C231.59699,257.881588 231.399164,257.843283 231.200981,257.805116 L230.0076,257.577791 L230.0076,257.577791 L228.805666,257.353874 C228.604633,257.316844 228.403243,257.279959 228.201499,257.243221 L226.986774,257.024581 C226.783611,256.988441 226.580094,256.952452 226.376223,256.916617 L225.148753,256.703452 L225.148753,256.703452 L223.912811,256.494047 L223.912811,256.494047 L222.668418,256.288491 L222.668418,256.288491 L221.415592,256.08687 C220.996581,256.020329 220.576168,255.954459 220.154356,255.889274 L218.884728,255.695789 C218.247819,255.60009 217.607771,255.505965 216.964596,255.413465 L215.674077,255.230645 C215.458297,255.200541 215.242169,255.170621 215.025696,255.140887 L213.722704,254.96473 C213.28699,254.906765 212.849894,254.849558 212.41142,254.793125 L211.091866,254.626159 L211.091866,254.626159 L209.764062,254.463922 C209.542075,254.437281 209.319744,254.410841 209.097072,254.384603 L207.756929,254.229622 C207.308847,254.178781 206.859398,254.128765 206.408586,254.079589 L205.052063,253.934591 C197.115192,253.103629 188.76182,252.534186 180.009918,252.304839 L179.25878,252.286015 Z M91.4372337,263.149866 C90.1627825,263.532965 88.9156316,263.920188 87.6957377,264.310512 L86.6567885,264.645812 C86.4847425,264.701814 86.3132525,264.757873 86.1423184,264.813987 L85.1233835,265.151297 C84.9546725,265.207616 84.7865171,265.263984 84.6189172,265.320397 L83.6199829,265.659397 C83.2892262,265.772563 82.9606905,265.885887 82.6343749,265.999345 L81.662087,266.340097 L81.662087,266.340097 L80.7031132,266.681511 L80.7031132,266.681511 L79.7574475,267.023444 L79.7574475,267.023444 L78.8250839,267.365753 L78.8250839,267.365753 L77.9060162,267.708294 C77.753946,267.765396 77.6024294,267.822501 77.4514665,267.879608 L76.5523315,268.222231 C76.4035826,268.279328 76.255387,268.33642 76.1077447,268.393504 L75.2285288,268.735887 C75.083099,268.792927 74.9382221,268.849952 74.7938981,268.906961 L73.9345877,269.248782 C73.7924746,269.30571 73.6509142,269.362615 73.5099063,269.419493 L72.6704877,269.760431 L72.6704877,269.760431 L71.8443228,270.100601 L71.8443228,270.100601 L71.0314055,270.439861 L71.0314055,270.439861 L70.2317299,270.778067 L70.2317299,270.778067 L69.4452897,271.115076 L69.4452897,271.115076 L68.6720791,271.450747 L68.6720791,271.450747 L67.912092,271.784935 L67.912092,271.784935 L67.1653223,272.117498 L67.1653223,272.117498 L66.4317639,272.448292 L66.4317639,272.448292 L65.3561846,272.940857 L65.3561846,272.940857 L64.6556283,273.266606 L64.6556283,273.266606 L63.9682622,273.590087 L63.9682622,273.590087 L63.2940803,273.911156 L63.2940803,273.911156 L62.6330765,274.229671 L62.6330765,274.229671 L61.9852449,274.545489 L61.9852449,274.545489 L61.3505793,274.858467 L61.3505793,274.858467 L60.7290737,275.168462 L60.7290737,275.168462 L60.1207221,275.475331 L60.1207221,275.475331 L59.5255184,275.778931 L59.5255184,275.778931 L58.9434565,276.07912 L58.9434565,276.07912 L58.3745306,276.375753 L58.3745306,276.375753 L57.5457581,276.813725 L57.5457581,276.813725 L57.0096452,277.100847 L57.0096452,277.100847 L56.2300641,277.523881 L56.2300641,277.523881 L55.7267267,277.800596 L55.7267267,277.800596 L55.2364888,278.072899 L55.2364888,278.072899 L54.7593445,278.340647 L54.7593445,278.340647 L54.0681651,278.733416 L54.0681651,278.733416 L53.6237281,278.98915 C53.5507448,279.031355 53.4783062,279.07335 53.4064122,279.11513 C77.1612486,307.037556 110.298406,326.736023 147.899038,333.281194 L147.222674,332.710155 L147.222674,332.710155 L146.539087,332.12854 L146.539087,332.12854 L145.848471,331.536346 C145.732794,331.436765 145.616831,331.336743 145.500587,331.236281 L144.799787,330.628214 L144.799787,330.628214 L144.092437,330.009562 L144.092437,330.009562 L143.378729,329.380323 L143.378729,329.380323 L142.658856,328.740495 L142.658856,328.740495 L141.933008,328.090074 L141.933008,328.090074 L141.201379,327.429059 L141.201379,327.429059 L140.46416,326.757447 L140.46416,326.757447 L139.721543,326.075236 L139.721543,326.075236 L138.97372,325.382423 L138.97372,325.382423 L138.220884,324.679006 C138.095004,324.560887 137.968923,324.442325 137.842645,324.323321 L137.082647,323.603994 L137.082647,323.603994 L136.318115,322.874057 L136.318115,322.874057 L135.549241,322.133508 C135.292247,321.884889 135.034562,321.634501 134.776217,321.382344 L133.999235,320.620562 C133.869418,320.492714 133.739445,320.364423 133.609319,320.23569 L132.826759,319.457978 C132.696038,319.327475 132.565171,319.196528 132.434163,319.065139 L131.646458,318.271493 C131.514903,318.138333 131.383214,318.00473 131.251397,317.870684 L130.458979,317.061097 L130.458979,317.061097 L129.663658,316.240879 C129.530873,316.10329 129.397975,315.965258 129.264969,315.826783 L128.465654,314.990615 L128.465654,314.990615 L127.663917,314.143811 C127.262475,313.71775 126.860196,313.287699 126.457189,312.853658 L125.650236,311.980253 C123.495941,309.636982 121.322972,307.180169 119.147712,304.60961 L118.462618,303.796176 C118.348225,303.659698 118.233728,303.522767 118.119133,303.385383 L117.430411,302.555655 C116.740569,301.720502 116.047465,300.869088 115.351982,300.001488 L114.655738,299.128496 C114.191089,298.542908 113.725514,297.950139 113.259272,297.350211 L112.559442,296.444952 L112.559442,296.444952 L111.858808,295.528973 L111.858808,295.528973 L111.157567,294.602289 C110.92374,294.291613 110.689845,293.979155 110.455913,293.66492 L109.754044,292.716881 C109.286102,292.081302 108.818147,291.438622 108.350439,290.788864 L107.649095,289.80892 C102.040351,281.926949 96.4860302,273.027351 91.4372337,263.149866 Z M335.537064,181.37615 L276.473139,181.37615 C275.64214,208.459182 269.195598,232.241298 260.30642,252.466485 C261.152697,252.710581 261.9892,252.956096 262.815884,253.202807 L264.048542,253.57374 C264.252756,253.635702 264.456355,253.697732 264.659338,253.759826 L265.869844,254.133129 C266.872433,254.444809 267.859595,254.757914 268.831245,255.072004 L269.989772,255.449356 C270.373463,255.575279 270.754665,255.701331 271.133375,255.827484 L272.26202,256.206218 C272.635738,256.332545 273.006957,256.458945 273.375673,256.58539 L274.474302,256.964829 L274.474302,256.964829 L275.557874,257.344367 C275.737212,257.407622 275.915922,257.470874 276.094003,257.53412 L277.154927,257.913488 C277.330486,257.976693 277.505415,258.039886 277.679713,258.103061 L278.717915,258.481878 C278.889683,258.544971 279.060819,258.608039 279.231321,258.67108 L280.246726,259.048966 L280.246726,259.048966 L281.246892,259.426019 L281.246892,259.426019 L282.231786,259.80207 L282.231786,259.80207 L283.201375,260.17695 L283.201375,260.17695 L284.155626,260.550488 C284.313387,260.612624 284.470509,260.674696 284.626989,260.736702 L285.55817,261.107912 C285.712083,261.169638 285.865353,261.231291 286.01798,261.292866 L286.926018,261.661367 L286.926018,261.661367 L287.818586,262.02785 C287.966056,262.088753 288.112881,262.149564 288.259058,262.210281 L289.128359,262.57342 C289.271947,262.633744 289.414887,262.693966 289.557178,262.754084 L290.403137,263.113496 L290.403137,263.113496 L291.233493,263.470214 L291.233493,263.470214 L292.048214,263.824066 L292.048214,263.824066 L292.847266,264.174885 L292.847266,264.174885 L293.630617,264.522501 L293.630617,264.522501 L294.398233,264.866744 L294.398233,264.866744 L295.150081,265.207444 L295.150081,265.207444 L295.886129,265.544434 L295.886129,265.544434 L296.606343,265.877543 L296.606343,265.877543 L297.31069,266.206603 C297.426757,266.261099 297.542162,266.315419 297.656903,266.369561 L298.337388,266.692228 L298.337388,266.692228 L299.001924,267.010421 L299.001924,267.010421 L299.650477,267.323973 L299.650477,267.323973 L300.283015,267.632712 L300.283015,267.632712 L300.899505,267.93647 L300.899505,267.93647 L301.499913,268.235078 L301.499913,268.235078 L302.3703,268.672962 L302.3703,268.672962 L302.93036,268.957953 L302.93036,268.957953 L303.740069,269.374618 L303.740069,269.374618 L304.513224,269.777789 C304.597095,269.821815 304.680287,269.865581 304.762799,269.909082 C322.901442,245.145295 334.102756,215.007288 335.497795,182.366042 L335.537064,181.37615 Z M45.6965828,81.0308526 C27.8176269,105.78633 16.7731647,135.909857 15.3995625,168.532489 L15.3609013,169.521815 L37.5705992,169.521469 C36.7890321,173.323024 36.2906009,177.289912 36.1089154,181.375554 L15.3609013,181.37615 C16.565431,214.303459 27.7503495,244.720981 45.9777796,269.692938 L46.4317212,269.42033 L46.4317212,269.42033 L46.8998506,269.142006 L46.8998506,269.142006 L47.3821783,268.85813 L47.3821783,268.85813 L48.1323145,268.42226 L48.1323145,268.42226 L48.6501838,268.125213 L48.6501838,268.125213 L49.4536816,267.670349 L49.4536816,267.670349 L50.007158,267.361148 L50.007158,267.361148 L50.8641155,266.888813 L50.8641155,266.888813 L51.4532644,266.568472 L51.4532644,266.568472 L52.0567007,266.24396 L52.0567007,266.24396 L52.6744348,265.915438 L52.6744348,265.915438 L53.3064772,265.58307 L53.3064772,265.58307 L53.9528384,265.247018 L53.9528384,265.247018 L54.6135288,264.907444 L54.6135288,264.907444 L55.288559,264.564511 L55.288559,264.564511 L55.9779393,264.218382 L55.9779393,264.218382 L56.6816804,263.869219 L56.6816804,263.869219 L57.3997926,263.517183 L57.3997926,263.517183 L58.1322864,263.162439 L58.1322864,263.162439 L58.8791723,262.805148 L58.8791723,262.805148 L59.6404608,262.445472 L59.6404608,262.445472 L60.4161624,262.083575 L60.4161624,262.083575 L61.2062875,261.719619 L61.2062875,261.719619 L62.0108466,261.353765 L62.0108466,261.353765 L62.8298502,260.986177 L62.8298502,260.986177 L63.6633088,260.617018 L63.6633088,260.617018 L64.5112328,260.246449 C64.6537595,260.184579 64.7968894,260.122657 64.9406226,260.060686 L65.8102644,259.688308 C65.956412,259.626157 66.1031635,259.563964 66.250519,259.501732 L67.1419022,259.12791 C67.5912197,258.940795 68.0459775,258.753395 68.5061814,258.565802 L69.4338526,258.190386 C69.5896753,258.127782 69.7461035,258.065164 69.9031376,258.002535 L70.852613,257.626649 C72.6066514,256.937375 74.4340423,256.247548 76.3350761,255.561673 L77.3793088,255.187979 L77.3793088,255.187979 L78.4381588,254.815231 L78.4381588,254.815231 L79.5116366,254.443592 C81.1328295,253.887047 82.8034265,253.334792 84.5235869,252.789296 L85.6777049,252.42666 C85.8712823,252.366397 86.065472,252.306224 86.2602742,252.246144 C84.5731699,248.394884 82.9748289,244.414951 81.4870826,240.308126 C85.3795743,239.62506 89.098608,238.172321 92.5628803,236.064147 C94.1756228,240.521022 95.9358145,244.8368 97.8166244,249.010282 C98.3757234,248.868005 98.9388925,248.72678 99.5061345,248.586663 L100.64605,248.307924 L100.64605,248.307924 L101.796833,248.032242 C102.182238,247.940868 102.569456,247.85002 102.958487,247.759716 L104.131019,247.490447 C104.523676,247.401245 104.918147,247.312602 105.314433,247.224536 L106.508736,246.962083 C107.10861,246.831738 107.712569,246.702727 108.320617,246.575107 L109.542163,246.321738 C110.973661,246.028344 112.427427,245.742728 113.9035,245.465607 L115.174168,245.230172 C119.853322,244.374661 124.752914,243.60509 129.874127,242.943734 L131.276317,242.766064 C132.918618,242.561951 134.583366,242.369 136.270601,242.187927 L137.72231,242.035647 C146.708483,241.114733 156.323191,240.531417 166.572065,240.391673 L167.404445,240.381317 L167.404445,181.37615 L116.615636,181.375554 C116.433951,177.289912 115.93552,173.323024 115.153953,169.521469 L167.404445,169.521815 L167.404445,110.516648 C147.289723,110.290012 129.599827,108.356533 114.296378,105.507298 L113.026614,105.267759 C111.340958,104.945592 109.684752,104.612392 108.057942,104.269241 L106.843346,104.01003 C106.238803,103.879509 105.638392,103.747627 105.04211,103.614441 L103.855052,103.346347 L103.855052,103.346347 L102.679,103.074879 L102.679,103.074879 L101.513949,102.800138 L101.513949,102.800138 L100.359895,102.522225 C99.4027634,102.289338 98.4570816,102.053253 97.5228367,101.814236 C93.5066079,110.907252 90.0505278,120.674909 87.4225596,131.105724 C83.9085599,129.718524 80.197949,128.976498 76.362276,128.976498 C76.1488333,128.976498 75.935778,128.978796 75.7231221,128.983375 C78.411691,118.092669 81.9253858,107.941494 85.9538956,98.5552907 L84.7872635,98.1902048 C81.6961586,97.2138283 78.7643263,96.2155282 75.9908211,95.2094439 L74.9581763,94.831825 L74.9581763,94.831825 L73.9403637,94.4536421 C73.4351636,94.2644372 72.9355213,94.0750829 72.4414306,93.8856724 L71.4606497,93.5068042 C71.2984193,93.4436562 71.1368053,93.3805089 70.9758075,93.3173657 L70.0172123,92.9385834 C69.8586782,92.8754705 69.7007597,92.8123686 69.5434567,92.7492811 L68.6070225,92.3709576 L68.6070225,92.3709576 L67.6853483,91.993147 L67.6853483,91.993147 L66.7784231,91.616015 L66.7784231,91.616015 L65.8862358,91.2397275 L65.8862358,91.2397275 L65.0087754,90.8644499 L65.0087754,90.8644499 L64.1460306,90.4903481 L64.1460306,90.4903481 L63.2979906,90.1175878 C63.1578753,90.055582 63.0183723,89.9936391 62.8794813,89.9317624 L62.0534775,89.5613249 L62.0534775,89.5613249 L61.2421506,89.192643 C61.1081519,89.1313515 60.9747643,89.0701401 60.8419876,89.0090122 L60.0526554,88.6432746 L60.0526554,88.6432746 L59.2779724,88.2797068 L59.2779724,88.2797068 L58.5179277,87.9184747 L58.5179277,87.9184747 L57.77251,87.5597438 L57.77251,87.5597438 L57.0417084,87.20368 L57.0417084,87.20368 L56.3255117,86.8504489 L56.3255117,86.8504489 L55.6239088,86.5002162 L55.6239088,86.5002162 L54.9368888,86.1531475 L54.9368888,86.1531475 L54.2644405,85.8094087 C54.1535794,85.7524056 54.0433251,85.6955481 53.9336772,85.6388397 L53.2830657,85.3004063 L53.2830657,85.3004063 L52.6469981,84.9657168 C52.5421982,84.9102564 52.4380039,84.854959 52.3344149,84.7998279 L51.7201425,84.4710652 L51.7201425,84.4710652 L51.1203865,84.1464607 L51.1203865,84.1464607 L50.5351357,83.8261802 C50.4388021,83.7731697 50.3430723,83.7203462 50.2479463,83.6677133 L49.6844326,83.3542294 L49.6844326,83.3542294 L49.1353963,83.0454838 L49.1353963,83.0454838 L48.6008266,82.741642 L48.6008266,82.741642 L48.0807122,82.4428699 L48.0807122,82.4428699 L47.3276201,82.0045797 L47.3276201,82.0045797 L46.8435956,81.7192065 L46.8435956,81.7192065 L46.3739878,81.4394828 L46.3739878,81.4394828 L45.9187854,81.1655744 C45.8441181,81.1204168 45.7700507,81.0755084 45.6965828,81.0308526 Z M264.608312,181.37615 L179.25878,181.37615 L179.25878,240.427484 C187.607682,240.615487 195.603469,241.0955 203.234702,241.807945 L204.707159,241.948724 C209.355507,242.403614 213.866632,242.944373 218.237901,243.557284 L219.61365,243.753218 C220.070681,243.819318 220.526159,243.886201 220.980082,243.953852 L222.337179,244.159091 C222.562583,244.193676 222.787598,244.228449 223.012222,244.263407 L224.355283,244.475374 L224.355283,244.475374 L225.688963,244.691705 C225.91046,244.728119 226.131565,244.76471 226.352279,244.801477 L227.671853,245.024176 L227.671853,245.024176 L228.982,245.250999 C230.72257,245.556138 232.437952,245.87202 234.12795,246.197622 L235.390686,246.44363 C237.277641,246.815327 239.132406,247.199003 240.954703,247.593198 L242.164754,247.857537 L242.164754,247.857537 L243.365166,248.124897 C243.763695,248.21451 244.160614,248.30461 244.555921,248.395182 L245.737,248.668296 C245.933039,248.714045 246.128674,248.759908 246.323905,248.805884 L247.490436,249.083061 C247.87766,249.17589 248.263264,249.269151 248.647244,249.362827 C257.441298,229.992227 263.643878,207.550938 264.581513,182.146877 L264.608312,181.37615 Z M304.469012,81.1441708 L303.706978,81.5412433 L303.706978,81.5412433 L302.909573,81.9513367 L302.909573,81.9513367 L302.076905,82.3739078 L302.076905,82.3739078 L301.209081,82.8084133 L301.209081,82.8084133 L300.611054,83.1044457 L300.611054,83.1044457 L299.997482,83.4053798 L299.997482,83.4053798 L299.048048,83.8656197 L299.048048,83.8656197 L298.395755,84.1781041 L298.395755,84.1781041 L297.72803,84.4949269 L297.72803,84.4949269 L297.044904,84.8159272 L297.044904,84.8159272 L296.346409,85.140944 L296.346409,85.140944 L295.632578,85.4698163 L295.632578,85.4698163 L294.903443,85.8023831 L294.903443,85.8023831 L294.159035,86.1384836 C294.033696,86.1947859 293.907723,86.2512287 293.781114,86.3078087 L293.013858,86.6489078 L293.013858,86.6489078 L292.23141,86.9931381 L292.23141,86.9931381 L291.433801,87.3403386 L291.433801,87.3403386 L290.621064,87.6903485 C290.484349,87.7489086 290.347005,87.8075791 290.209033,87.8663566 L289.373663,88.2202785 L289.373663,88.2202785 L288.523246,88.5766074 L288.523246,88.5766074 L287.657813,88.9351821 L287.657813,88.9351821 L286.777395,89.2958418 L286.777395,89.2958418 L285.882025,89.6584255 L285.882025,89.6584255 L284.971736,90.0227722 L284.971736,90.0227722 L284.046558,90.388721 C283.735688,90.5109531 283.422342,90.6334253 283.106525,90.7561109 L282.151667,91.1247809 L282.151667,91.1247809 L281.182018,91.4945701 L281.182018,91.4945701 L280.197609,91.8653176 L280.197609,91.8653176 L279.198472,92.2368623 L279.198472,92.2368623 L278.184639,92.6090432 C278.014444,92.6711175 277.843638,92.7332115 277.672221,92.795322 L276.636405,93.1681557 L276.636405,93.1681557 L275.585973,93.5412232 L275.585973,93.5412232 L274.520957,93.9143636 C274.342241,93.9765508 274.162918,94.0387343 273.98299,94.1009109 L272.896159,94.4738589 C272.349114,94.6602639 271.796631,94.8465454 271.238727,95.0326128 L270.115697,95.4044354 C269.738948,95.5282632 269.359795,95.651969 268.978243,95.775526 L267.826398,96.1457238 C267.633226,96.2073401 267.439456,96.2689124 267.245088,96.3304376 L266.071716,96.6989943 C265.481449,96.8829622 264.885815,97.0664445 264.284833,97.2493504 L263.075742,97.6143672 C262.264934,97.8571637 261.444638,98.0988285 260.614897,98.3391469 C269.246906,118.382857 275.534248,141.92094 276.449161,168.709059 L276.475238,169.521815 L335.534965,169.521815 C334.313648,136.569324 322.965048,106.128719 304.469012,81.1441708 Z M248.978805,101.451198 L248.399652,101.592595 L248.399652,101.592595 L247.233971,101.873471 L247.233971,101.873471 L246.058471,102.151706 L246.058471,102.151706 L244.873171,102.427205 C244.476439,102.518571 244.078078,102.609464 243.678088,102.699868 L242.473242,102.969599 L242.473242,102.969599 L241.258649,103.2363 C240.242433,103.45726 239.216084,103.674962 238.17965,103.889152 L236.931091,104.144476 C236.722192,104.186744 236.51289,104.228867 236.303186,104.270844 L235.040138,104.520926 C234.828826,104.562308 234.617113,104.603539 234.404999,104.644618 L233.127503,104.889239 C231.8452,105.131995 230.548483,105.369107 229.237434,105.600134 L227.921611,105.829116 L227.921611,105.829116 L226.596253,106.053945 C225.931192,106.165304 225.262562,106.275069 224.590374,106.383185 L223.241254,106.597201 C221.210466,106.914878 219.147709,107.217381 217.05326,107.503226 L215.652268,107.691305 C215.183708,107.753164 214.713585,107.814185 214.241904,107.874351 L212.822186,108.052265 C208.549021,108.578216 204.149825,109.033578 199.626814,109.40648 L198.11456,109.527711 C192.300034,109.980596 186.283755,110.296695 180.070342,110.451242 L179.25878,110.470482 L179.25878,169.521815 L264.610411,169.521815 C263.789903,143.765025 257.67702,121.038446 248.978805,101.451198 Z M167.404445,16.036613 L167.038686,16.3016026 L167.038686,16.3016026 L166.272991,16.8614859 L166.272991,16.8614859 L165.462908,17.4611968 C152.29267,27.2716381 122.96412,52.0387254 102.815213,90.8034916 L103.340088,90.9325402 L103.340088,90.9325402 L104.397155,91.1886662 L104.397155,91.1886662 L105.46398,91.4420893 C105.642598,91.4840963 105.821622,91.5259869 106.001052,91.5677593 L107.082516,91.8169603 L107.082516,91.8169603 L108.173741,92.0632345 C108.53911,92.1448282 108.906106,92.2259191 109.274729,92.3064924 L110.38548,92.5466445 C110.571419,92.5864061 110.757765,92.6260345 110.944518,92.6655279 L112.069918,92.9008534 C112.258299,92.9397993 112.447086,92.9786065 112.636281,93.0172731 L113.776332,93.2475705 C114.157978,93.3237639 114.541251,93.39938 114.926153,93.4744038 L116.085745,93.6976836 C117.250223,93.9191568 118.42936,94.1351653 119.623161,94.3453062 L120.821851,94.5534763 C122.02543,94.7596607 123.243676,94.9598432 124.476595,95.1536208 L125.714405,95.3452484 C126.957107,95.5347113 128.214484,95.717635 129.486544,95.8936164 L130.763497,96.067269 C131.831703,96.2100261 132.910107,96.3478691 133.998711,96.4805646 L135.309933,96.6373135 C135.74864,96.6887296 136.188978,96.7393072 136.63095,96.7890314 L137.961762,96.9356286 C139.297472,97.0796357 140.647877,97.2158275 142.012985,97.3438011 L143.382993,97.4690204 L143.382993,97.4690204 L144.762804,97.5886713 C145.685946,97.6665626 146.615624,97.740682 147.55184,97.81091 L148.961068,97.9133186 C154.617594,98.3111596 160.509519,98.5667638 166.63725,98.6543416 L167.404445,98.6644118 L167.404445,16.036613 Z M179.25878,16.0345146 L179.25878,98.6119497 C187.514915,98.4146923 195.418737,97.9143205 202.955247,97.176276 L204.321471,97.0394816 C206.818782,96.783944 209.275179,96.5024389 211.690107,96.1973902 L213.003225,96.0286797 C213.657724,95.9431716 214.309131,95.855945 214.957435,95.7670492 L216.249902,95.5870466 C216.894063,95.495947 217.535114,95.403211 218.173042,95.3088877 L219.444733,95.1181392 L219.444733,95.1181392 L220.708078,94.9232454 L220.708078,94.9232454 L221.963058,94.7242936 C222.379988,94.6573097 222.79552,94.5896641 223.209652,94.5213713 L224.44784,94.3145659 L224.44784,94.3145659 L225.677603,94.1039647 C226.290375,93.9977297 226.89998,93.8901042 227.506406,93.7811371 L228.715017,93.561429 C228.915745,93.5245178 229.116119,93.4874611 229.316138,93.4502609 L230.511998,93.2253509 C231.107799,93.1120489 231.700402,92.9974874 232.289796,92.8817156 L233.464304,92.6485728 L233.464304,92.6485728 L234.630237,92.4122898 L234.630237,92.4122898 L235.787573,92.1729541 C235.979745,92.1328153 236.171558,92.0925529 236.363011,92.0521688 L237.507416,91.8084178 L237.507416,91.8084178 L238.643175,91.5618326 C239.208889,91.437846 239.771354,91.3128293 240.330558,91.1868318 L241.444614,90.9335434 L241.444614,90.9335434 L242.549954,90.6777267 C242.916946,90.5920428 243.282481,90.505952 243.646558,90.4194691 C223.289586,51.4642235 193.701811,26.7139335 180.784717,17.1507429 L179.999339,16.5728272 C179.872139,16.4798067 179.746806,16.3884363 179.623369,16.2987172 L179.25878,16.0345146 Z M146.234941,17.6041804 C109.190406,24.1157756 76.5296049,43.7365989 53.0853442,71.5645923 L53.7392015,71.9425714 L53.7392015,71.9425714 L54.1917018,72.2009806 L54.1917018,72.2009806 L54.6574832,72.4643577 L54.6574832,72.4643577 L55.1365499,72.7325563 L55.1365499,72.7325563 L55.628906,73.0054304 L55.628906,73.0054304 L56.1345556,73.2828335 L56.1345556,73.2828335 L56.6535029,73.5646194 L56.6535029,73.5646194 L57.1857519,73.850642 L57.1857519,73.850642 L57.7313069,74.1407549 L57.7313069,74.1407549 L58.2901719,74.4348118 L58.2901719,74.4348118 L59.1534348,74.8829725 L59.1534348,74.8829725 L59.745593,75.1862497 L59.745593,75.1862497 L60.3510757,75.4929592 L60.3510757,75.4929592 L61.2842922,75.9591388 L61.2842922,75.9591388 L61.9231042,76.2737888 L61.9231042,76.2737888 L62.5752552,76.5913591 L62.5752552,76.5913591 L63.2407492,76.9117035 L63.2407492,76.9117035 L63.9195905,77.2346756 L63.9195905,77.2346756 L64.6117831,77.5601292 L64.6117831,77.5601292 L65.3173312,77.8879181 L65.3173312,77.8879181 L66.0362388,78.217896 L66.0362388,78.217896 L66.7685102,78.5499166 C66.8916694,78.6054155 67.0153855,78.6609934 67.1396586,78.7166473 L67.8919834,79.0514578 C68.0184852,79.1074034 68.1455443,79.1634189 68.2731608,79.2195011 L69.0455482,79.5567725 C69.1753943,79.6131099 69.305798,79.6695081 69.4367592,79.725964 L70.2292185,80.0653671 L70.2292185,80.0653671 L71.0350643,80.4060085 C71.1704877,80.4628771 71.306469,80.5197913 71.4430083,80.5767479 L72.2689415,80.9189726 C72.4077133,80.9760868 72.5470433,81.0332374 72.6869316,81.0904213 L73.5329615,81.4339003 L73.5329615,81.4339003 L74.3923943,81.7780325 C74.6811062,81.8928359 74.9720527,82.0077238 75.2652343,82.1226718 L76.1514854,82.4676719 L76.1514854,82.4676719 L77.051152,82.8128865 C77.2022146,82.8704321 77.3538363,82.9279805 77.5060173,82.9855286 L78.4258146,83.3307909 L78.4258146,83.3307909 L79.3590375,83.675902 C79.6723499,83.7908976 79.9879006,83.9058437 80.3056903,84.0207158 L81.265777,84.365086 C81.4269112,84.422436 81.5886053,84.4797613 81.7508594,84.5370591 L82.7311048,84.8804896 C82.8955992,84.9376647 83.0606539,84.994806 83.2262688,85.0519106 L84.2266821,85.3940725 C84.3945384,85.4510178 84.5629552,85.5079202 84.7319324,85.5647768 L85.752523,85.9053409 L85.752523,85.9053409 L86.7865702,86.2446569 L86.7865702,86.2446569 L87.8340782,86.5825787 C88.1854914,86.6949707 88.5391488,86.8071059 88.8950511,86.91896 L89.969493,87.2536545 C90.3298856,87.364922 90.6925238,87.4758839 91.0574081,87.586516 C96.1844444,77.3544645 101.840819,68.1762926 107.533937,60.0949421 L108.217256,59.1304476 L108.217256,59.1304476 L108.900738,58.176499 C109.470322,57.3859405 110.03988,56.6063847 110.608918,55.8378743 L111.291484,54.9209665 C111.405193,54.7690331 111.518873,54.6175422 111.63252,54.4664941 L112.313983,53.5655228 C112.427485,53.4162475 112.540946,53.2674157 112.654362,53.1190279 L113.334297,52.2340301 L113.334297,52.2340301 L114.012977,51.3597019 C114.238974,51.0700393 114.464729,50.7821577 114.690213,50.4960598 L115.365815,49.6431204 C115.590723,49.3605929 115.815326,49.0798519 116.039595,48.8009001 L116.711363,47.9694154 L116.711363,47.9694154 L117.38093,47.1486828 C117.603731,46.8768991 117.826134,46.6069102 118.048107,46.3387188 C118.714725,45.5331808 119.381119,44.7388068 120.046798,43.9555905 L120.845238,43.0210862 L120.845238,43.0210862 L121.642802,42.0972909 C123.236927,40.2604078 124.824664,38.4877645 126.399214,36.7792751 L127.185358,35.9303761 L127.185358,35.9303761 L127.969116,35.092167 C128.099533,34.9533562 128.229842,34.8149907 128.360041,34.6770705 L129.139864,33.8548918 C129.269602,33.7187524 129.39922,33.5830582 129.528716,33.4478091 L130.30418,32.6416555 L130.30418,32.6416555 L131.076502,31.8461822 C131.20495,31.7144932 131.333259,31.5832492 131.461425,31.45245 L132.22868,30.6729928 L132.22868,30.6729928 L132.99232,29.90421 C133.373205,29.5224868 133.752664,29.1447656 134.13059,28.7710451 L134.884368,28.0289379 C135.134925,27.7833466 135.38477,27.539533 135.633871,27.2974967 L136.378909,26.5767192 L136.378909,26.5767192 L137.119294,25.8666029 C137.365293,25.6316741 137.610485,25.3985218 137.854838,25.1671455 L138.585344,24.4783446 L138.585344,24.4783446 L139.310643,23.8001978 C139.43108,23.6880611 139.551291,23.5763681 139.671273,23.465119 L140.388382,22.8029489 C140.507431,22.6934746 140.626243,22.584444 140.744814,22.475857 L141.453315,21.8296582 L141.453315,21.8296582 L142.155841,21.194104 L142.155841,21.194104 L142.852202,20.5691919 L142.852202,20.5691919 L143.542211,19.9549196 L143.542211,19.9549196 L144.225678,19.3512847 L144.225678,19.3512847 L144.902415,18.7582848 L144.902415,18.7582848 L145.572232,18.1759175 L145.572232,18.1759175 L146.234941,17.6041804 L146.234941,17.6041804 Z M200.258307,17.4572866 L200.914974,18.0226612 C201.025012,18.1177646 201.135346,18.2133052 201.24597,18.3092829 L201.91317,18.8903966 L201.91317,18.8903966 L202.587162,19.4820061 L202.587162,19.4820061 L203.26776,20.084114 L203.26776,20.084114 L203.954778,20.6967227 L203.954778,20.6967227 L204.648031,21.3198348 C204.764082,21.4245622 204.880386,21.5297274 204.996937,21.6353304 L205.699195,22.2742023 L205.699195,22.2742023 L206.407224,22.923584 L206.407224,22.923584 L207.120839,23.5834778 L207.120839,23.5834778 L207.839854,24.2538865 C207.96013,24.3664976 208.080622,24.479547 208.201329,24.5930346 L208.928097,25.2792201 L208.928097,25.2792201 L209.659803,25.9759266 C209.782155,26.0929213 209.904705,26.2103544 210.027449,26.3282261 L210.766213,27.040719 L210.766213,27.040719 L211.50945,27.7637392 C211.757921,28.0065008 212.007106,28.2510174 212.256975,28.4972894 L213.008603,29.2413719 C213.134206,29.3662635 213.259972,29.4915941 213.385898,29.6173637 L214.143332,30.3772496 L214.143332,30.3772496 L214.904406,31.1476743 L214.904406,31.1476743 L215.668934,31.9286402 C215.796632,32.0596797 215.924467,32.1911586 216.052435,32.3230769 L216.821795,33.1198594 L216.821795,33.1198594 L217.594146,33.9271895 C217.72311,34.0626237 217.852191,34.1984974 217.981385,34.3348107 L218.757874,35.1579669 C219.017135,35.4341111 219.276817,35.7120143 219.536889,35.991677 L220.318246,36.8359434 L220.318246,36.8359434 L221.101759,37.6907688 C221.755534,38.4075235 222.411361,39.1352798 223.068758,39.8740441 L223.858357,40.7658456 L223.858357,40.7658456 L224.649277,41.6682174 C225.968477,43.1809803 227.292411,44.7377966 228.617217,46.3387188 L228.953011,46.7455128 L228.953011,46.7455128 L229.62648,47.5672965 C229.851371,47.8430442 230.076653,48.120611 230.302293,48.399994 L230.980257,49.243589 C232.225042,50.8001592 233.479689,52.4115889 234.738807,54.0774251 L235.42601,54.991456 C242.301823,64.1856676 249.281511,74.9961379 255.4904,87.3493873 C256.062468,87.1874053 256.629984,87.0247416 257.192931,86.8614708 L258.312726,86.5341421 C258.683957,86.4247775 259.053152,86.3151653 259.420306,86.2053276 L260.515638,85.8751604 C260.697171,85.8200272 260.878193,85.7648432 261.058702,85.7096111 L262.135603,85.377664 L262.135603,85.377664 L263.200179,85.0446966 L263.200179,85.0446966 L264.252397,84.7108418 C264.426735,84.6551327 264.600557,84.5993923 264.773862,84.5436231 L265.807484,84.2086865 L265.807484,84.2086865 L266.828671,83.8731948 L266.828671,83.8731948 L267.837389,83.5372811 C268.004469,83.4812677 268.171027,83.4252423 268.337064,83.3692076 L269.327022,83.0329101 L269.327022,83.0329101 L270.304434,82.696523 C270.466289,82.6404584 270.62762,82.5843956 270.788426,82.5283373 L271.74696,82.1920651 L271.74696,82.1920651 L272.692869,81.8560355 L272.692869,81.8560355 L273.626122,81.5203817 L273.626122,81.5203817 L274.546688,81.1852365 L274.546688,81.1852365 L275.454534,80.850733 L275.454534,80.850733 L276.34963,80.5170041 L276.34963,80.5170041 L277.231944,80.1841827 L277.231944,80.1841827 L278.101445,79.8524019 L278.101445,79.8524019 L278.958101,79.5217945 L278.958101,79.5217945 L279.801881,79.1924935 L279.801881,79.1924935 L280.632754,78.8646319 L280.632754,78.8646319 L281.450687,78.5383427 L281.450687,78.5383427 L282.25565,78.2137588 C282.388728,78.159811 282.521264,78.1059398 282.653258,78.0521479 L283.438706,77.7303713 L283.438706,77.7303713 L284.211105,77.4106324 L284.211105,77.4106324 L285.345169,76.9351355 L285.345169,76.9351355 L286.084808,76.6210726 L286.084808,76.6210726 L286.811288,76.3095127 L286.811288,76.3095127 L287.524578,76.0005889 L287.524578,76.0005889 L288.569712,75.5424365 L288.569712,75.5424365 L289.584991,75.0909632 L289.584991,75.0909632 L290.245205,74.793913 L290.245205,74.793913 L290.892071,74.5001638 L290.892071,74.5001638 L291.525558,74.2098483 L291.525558,74.2098483 L292.450635,73.7811042 L292.450635,73.7811042 L293.050537,73.4999549 L293.050537,73.4999549 L293.63695,73.2227047 L293.63695,73.2227047 L294.49121,72.8144313 L294.49121,72.8144313 L295.314942,72.4156787 L295.314942,72.4156787 L296.108042,72.026896 L296.108042,72.026896 L296.870402,71.6485317 L296.870402,71.6485317 C272.605634,43.5582278 238.70253,23.8177909 200.258307,17.4572866 Z" id="World" fill="#FFFFFF"></path>
        <path d="M76.362276,141.259974 C79.2368613,141.259974 82.0765411,142.003211 84.7816732,143.388788 C83.3395371,151.459253 82.4045781,159.888003 82.0840135,168.670765 L82.0549127,169.521815 L102.575432,169.522038 C103.498668,173.234097 104.101494,177.207173 104.318939,181.375476 L82.0570112,181.37615 C82.5519721,196.611196 84.9341583,210.781654 88.6346612,223.866682 C85.2109456,226.537816 81.4563761,228.13873 77.61276,228.425892 C73.510759,214.299967 70.7951999,198.849995 70.2169915,182.136714 L70.1921839,181.37615 L48.4056131,181.375476 C48.6230575,177.207173 49.225884,173.234097 50.1491198,169.522038 L70.1900854,169.521815 C70.4820638,159.779116 71.4854118,150.463675 73.0553583,141.587385 C74.1484944,141.370694 75.2527853,141.259974 76.362276,141.259974 Z" id="Cross" fill="#FFC62F"></path>
        <path d="M1179,339 L1179,351 L376,351 L376,339 L1179,339 Z M1179,96 L1179,108 L940,108 L940,96 L1179,96 Z" id="Lines" fill="#FFC62F"></path>
    </g>
</svg>