<?xml version="1.0" encoding="UTF-8"?>
<svg width="882px" height="961px" viewBox="0 0 882 961" version="1.1" xmlns="http://www.w3.org/2000/svg" xmlns:xlink="http://www.w3.org/1999/xlink">
    <title>Stroke 4</title>
    <g id="Page-1" stroke="none" stroke-width="1" fill="none" fill-rule="evenodd">
        <g id="iStock-1208432311" transform="translate(-557.000000, -494.000000)" fill="#000000" fill-rule="nonzero">
            <path d="M1030.99,493.996 C1255.21478,493.996 1438.27,675.831201 1438.27,899.413 C1438.27,981.775236 1413.67099,1060.51409 1368.39849,1127.19682 L1367.02027,1129.21381 C1348.05847,1156.77175 1337.90424,1190.00407 1337.70305,1224.49544 L1337.7,1225.54101 L1337.69,1433.34101 C1337.68944,1444.93899 1328.28697,1454.34 1316.68899,1454.34 C1305.20816,1454.34 1295.8796,1445.12596 1295.69285,1433.68976 L1295.69,1433.33899 L1295.7,1225.54 C1295.7,1182.7169 1308.12909,1141.18094 1331.6991,1106.46057 L1332.41675,1105.41052 C1373.78713,1045.25308 1396.27,974.040549 1396.27,899.413 C1396.27,699.090264 1232.08146,535.996 1030.99,535.996 C977.673903,535.996 925.817013,547.785474 877.821425,570.162521 L876.47,570.795 L873.061653,572.451612 C761.349829,627.443912 683.544036,736.201027 670.395301,859.746465 L670.013018,863.533046 C668.684251,877.45649 668.129553,891.319642 668.339763,905.083716 L668.379309,907.256162 C669.185494,945.391872 661.035349,984.218036 645.12472,1022.3107 L600.281098,1128.50112 C598.703791,1132.23539 600.701937,1136.48988 604.584658,1137.70818 L604.815214,1137.77632 L657.540283,1152.42411 C676.121641,1157.57844 689.900094,1173.16667 692.798236,1192.1567 L692.904,1192.893 L715.691198,1335.02561 C715.830059,1335.89173 715.914482,1336.76548 715.944053,1337.64173 L715.955939,1338.2993 C716.005488,1358.82409 732.488774,1375.47403 752.930359,1375.80498 L753.551,1375.81 L885.744,1375.81 C935.960787,1375.81 976.768561,1335.50242 977.579694,1285.47881 L977.592,1283.96 C977.592,1272.36202 986.99402,1262.96 998.592,1262.96 C1010.18998,1262.96 1019.592,1272.36202 1019.592,1283.96 C1019.592,1357.14032 960.857005,1416.60999 887.95737,1417.79207 L885.744,1417.81 L753.551,1417.81 C710.543828,1417.81 675.489488,1383.69483 674.004798,1341.02369 L673.982,1340.187 L651.37137,1199.15168 L651.302739,1198.66243 C650.96105,1195.99927 649.10513,1193.78269 646.562326,1192.97022 L646.305786,1192.89368 L593.578306,1178.24522 C565.158175,1170.35804 550.11245,1139.33408 561.59068,1112.15941 L605.900911,1007.23886 C619.794971,974.344812 626.902002,941.276724 626.409791,909.299108 L626.388689,908.143767 C626.048258,892.037459 626.649659,875.819388 628.203096,859.541754 C641.55358,719.734029 728.757081,596.675351 854.511534,534.770141 L858.334039,532.91299 L858.457803,532.854147 C912.390877,507.42719 970.861571,493.996 1030.99,493.996 Z M1015.98,599.976 C1067.60537,599.976 1114.5277,628.293583 1140.28681,671.922532 L1141.13,673.37 L1141.3173,673.363957 C1142.19387,673.337327 1143.07168,673.319556 1143.95066,673.310668 L1145.27,673.304 C1216.01792,673.304 1273.37,730.654965 1273.37,801.402 C1273.37,807.047041 1273.00286,812.641023 1272.28088,818.156146 C1301.47809,838.318933 1319.68,871.777845 1319.68,908.5 C1319.68,969.123245 1270.53671,1018.265 1209.91,1018.265 C1155.61018,1018.265 1110.51958,978.832701 1101.70921,927.040476 C1075.77846,927.726638 1049.93886,916.140895 1033.37658,893.673914 C1026.49461,884.338413 1028.48358,871.191553 1037.81909,864.30958 C1047.05311,857.502411 1060.0161,859.374394 1066.9568,868.450273 L1067.18342,868.752086 C1080.33135,886.587457 1105.44402,890.386427 1123.27878,877.237802 C1135.61729,868.141723 1141.55532,853.00521 1139.03722,838.178502 L1138.95114,837.689831 C1136.86912,826.280259 1144.4306,815.343163 1155.84017,813.261143 C1167.24974,811.179123 1178.18684,818.740598 1180.26886,830.150169 C1185.85627,860.769492 1173.71054,892.238454 1148.20161,911.043904 C1146.32286,912.429008 1144.40464,913.722229 1142.45232,914.924381 C1145.68551,949.336121 1174.65369,976.265 1209.91,976.265 C1247.34105,976.265 1277.68,945.926992 1277.68,908.5 C1277.68,890.432398 1270.55221,873.652562 1258.53504,861.278288 C1257.12162,863.948404 1255.6111,866.571722 1254.00619,869.143814 C1247.86654,878.983421 1234.91279,881.982832 1225.07319,875.843185 C1215.33826,869.768854 1212.29876,857.024634 1218.18097,847.225262 L1218.37381,846.910186 C1222.83389,839.762318 1226.2055,832.036425 1228.39559,823.932515 C1228.47955,823.572715 1228.57364,823.2142 1228.67771,822.856935 C1230.45381,815.931492 1231.37,808.738805 1231.37,801.402 C1231.37,753.851107 1192.82215,715.304 1145.27,715.304 C1140.80727,715.304 1136.40365,715.64102 1132.07116,716.30712 C1122.83615,717.726959 1113.79104,712.875045 1109.8522,704.436059 L1109.69322,704.087238 C1093.13964,666.880001 1056.41384,641.976 1015.98,641.976 C959.370108,641.976 913.479,687.866851 913.479,744.476 C913.479,748.386227 913.697319,752.267819 914.129986,756.110343 L914.282141,757.389723 C915.723757,768.897758 907.563312,779.395525 896.055277,780.837141 C884.547242,782.278757 874.049475,774.118312 872.607859,762.610277 C871.898012,756.943759 871.520883,751.220308 871.482297,745.460565 C826.979877,748.791288 791.909,785.955709 791.909,831.312 C791.909,877.556508 828.366919,915.285159 874.107898,917.323328 C883.813096,878.08426 919.254105,848.995 961.489,848.995 C973.08698,848.995 982.489,858.39702 982.489,869.995 C982.489,881.475828 973.27596,890.804836 961.839774,890.99213 L961.489,890.995 C934.97398,890.995 913.479,912.48998 913.479,939.005 C913.479,965.256882 934.547241,986.589539 960.695102,987.013567 L961.489,987.02 L1006.65,987.02 C1057.4251,987.02 1098.67759,1027.76474 1099.49756,1078.34431 L1099.51,1079.88 L1099.51,1139.23 C1099.51,1150.82798 1090.10798,1160.23 1078.51,1160.23 C1067.02917,1160.23 1057.70016,1151.01696 1057.51287,1139.58077 L1057.51,1139.23 L1057.51,1079.88 C1057.51,1052.0689 1035.1951,1029.47589 1007.49115,1029.02681 L1006.65,1029.02 L961.489,1029.02 C918.771691,1029.02 883.004135,999.259382 873.785783,959.341334 C804.993537,957.115509 749.909,900.646877 749.909,831.312 C749.909,760.74892 806.962366,703.511948 877.455133,703.215159 C895.21022,643.515092 950.510457,599.976 1015.98,599.976 Z M1034.3507,720.961185 C1079.19781,727.74468 1110.04885,769.596973 1103.2637,814.44349 C1101.5287,825.910962 1090.82598,833.800692 1079.35851,832.065695 C1068.00687,830.348223 1060.16106,819.843283 1061.68667,808.507766 L1061.7363,808.16051 C1065.05148,786.248842 1049.98,765.802989 1028.06891,762.488755 C1012.91155,760.195785 998.011127,766.702256 989.307886,778.971362 L989.026289,779.37348 C982.431191,788.913806 969.350846,791.301386 959.81052,784.706289 C950.270194,778.111191 947.882614,765.030846 954.477711,755.49052 C972.177313,729.886656 1003.01444,716.220706 1034.3507,720.961185 Z" id="Stroke-4"></path>
        </g>
    </g>
</svg>